<?xml version="1.0" encoding="UTF-8" standalone="no"?><!DOCTYPE svg PUBLIC "-//W3C//DTD SVG 1.1//EN" "http://www.w3.org/Graphics/SVG/1.1/DTD/svg11.dtd"><svg width="1024px" height="1024px" version="1.1" xmlns="http://www.w3.org/2000/svg" xmlns:xlink="http://www.w3.org/1999/xlink" xml:space="preserve" xmlns:serif="http://www.serif.com/" style="fill-rule:evenodd;clip-rule:evenodd;stroke-linecap:round;stroke-linejoin:round;stroke-miterlimit:1.5;"><g id="coresocial"><rect x="0" y="0" width="1024" height="1024" style="fill:rgb(0,116,187);stroke:rgb(35,177,0);stroke-width:1px;"/><path id="plugin-coresocial.svg" d="M156.544,627.2L156.544,120.32C156.544,89.236 181.78,64 212.864,64L755.584,64C786.668,64 811.904,89.236 811.904,120.32L811.904,461.24C803.245,457.181 794.107,453.978 784.598,451.739L784.598,120.32C784.598,104.307 771.597,91.306 755.584,91.306L212.864,91.306C196.851,91.306 183.85,104.307 183.85,120.32L183.85,160.426L601.984,160.426L601.984,187.734L183.85,187.734L183.85,599.894L611.887,599.894C612.621,609.283 614.277,618.415 616.765,627.2L156.544,627.2ZM210.304,140.374L210.304,113.066L299.904,113.066L299.904,140.374L210.304,140.374ZM338.304,140.374L338.304,113.066L402.304,113.066L402.304,140.374L338.304,140.374ZM440.704,140.374L440.704,113.066L479.104,113.066L479.104,140.374L440.704,140.374ZM752.256,473.6C815.836,473.6 867.456,525.22 867.456,588.8C867.456,652.38 815.836,704 752.256,704C688.676,704 637.056,652.38 637.056,588.8C637.056,525.22 688.676,473.6 752.256,473.6ZM752.256,500.906C703.747,500.906 664.362,540.291 664.362,588.8C664.362,637.309 703.747,676.694 752.256,676.694C800.765,676.694 840.15,637.309 840.15,588.8C840.15,540.291 800.765,500.906 752.256,500.906ZM464.529,511.83C463.502,500.09 463.48,488.1 464.543,475.956C474.394,363.355 573.811,279.935 686.413,289.786C698.372,290.833 710.001,292.888 721.225,295.864L723.916,323.442C711.272,319.342 697.974,316.595 684.173,315.388C585.701,306.774 498.761,379.725 490.145,478.196C488.923,492.169 489.343,505.91 491.245,519.227L464.529,511.83ZM423.059,500.348C420.819,483.904 420.358,466.959 421.865,449.738C432.795,324.819 543.085,232.275 668.003,243.204C685.009,244.691 701.413,248.02 717.039,252.978L720.093,284.271C702.998,277.64 684.694,273.285 665.518,271.607C556.275,262.049 459.826,342.981 450.268,452.223C448.572,471.603 449.725,490.58 453.379,508.742L423.059,500.348ZM506.591,523.476C506.39,516.453 506.593,509.344 507.22,502.176C515.994,401.891 604.536,327.594 704.823,336.367C711.839,336.982 718.728,337.985 725.469,339.357L728.125,366.584C719.871,364.456 711.332,362.977 702.563,362.211C616.539,354.684 540.589,418.414 533.062,504.438C532.283,513.347 532.268,522.149 532.963,530.778L506.591,523.476ZM593.38,547.506C603.081,477.924 664.038,426.693 734.225,429.08L736.845,455.927C677.632,452.055 625.728,495.679 619.377,554.705L593.38,547.506ZM549.439,535.34C549.541,533.033 549.693,530.717 549.897,528.396C557.594,440.425 635.263,375.252 723.233,382.949C725.434,383.142 727.621,383.378 729.792,383.657L732.422,410.606C728.653,409.948 724.826,409.445 720.945,409.106C647.41,402.673 582.487,457.149 576.054,530.684C575.704,534.673 575.535,538.636 575.538,542.566L549.439,535.34ZM338.08,590.08C340.87,583.875 343.08,577.413 344.673,570.779L346.834,561.777L377.894,557.288C378.583,549.298 378.583,541.263 377.894,533.272L346.834,528.783L344.673,519.781C341.997,508.636 337.583,497.981 331.596,488.209L326.758,480.316L345.548,455.178C340.384,449.042 334.702,443.36 328.566,438.196L303.428,456.986L295.535,452.148C285.763,446.161 275.108,441.747 263.963,439.071L254.961,436.91L250.472,405.85C242.482,405.161 234.446,405.161 226.456,405.85L221.967,436.91L212.965,439.071C206.331,440.664 199.869,442.874 193.664,445.664L193.664,430.858C198.906,428.805 204.289,427.113 209.778,425.795L214.436,393.571C230.355,391.05 246.573,391.05 262.492,393.571L267.15,425.795C279.688,428.805 291.675,433.77 302.669,440.508L328.748,421.015C341.788,430.49 353.254,441.956 362.729,454.996L343.236,481.075C349.974,492.069 354.939,504.056 357.949,516.594L390.173,521.252C392.694,537.171 392.694,553.389 390.173,569.308L357.949,573.966C356.631,579.455 354.939,584.838 352.886,590.08L338.08,590.08ZM238.464,500.906C262.954,500.906 282.838,520.79 282.838,545.28C282.838,569.77 262.954,589.654 238.464,589.654C213.974,589.654 194.09,569.77 194.09,545.28C194.09,520.79 213.974,500.906 238.464,500.906ZM238.464,514.56C221.509,514.56 207.744,528.325 207.744,545.28C207.744,562.235 221.509,576 238.464,576C255.419,576 269.184,562.235 269.184,545.28C269.184,528.325 255.419,514.56 238.464,514.56Z" style="fill:white;fill-rule:nonzero;"/><g><path d="M195.936,960C186.603,960 179.173,957.293 173.648,951.88C168.123,946.467 165.36,938.571 165.36,928.192L165.36,910.272C165.36,899.893 168.123,891.997 173.648,886.584C179.173,881.171 186.603,878.464 195.936,878.464C205.195,878.464 212.307,881.04 217.272,886.192C222.237,891.344 224.72,898.4 224.72,907.36L224.72,907.92L215.424,907.92L215.424,907.024C215.424,901.125 213.837,896.291 210.664,892.52C207.491,888.749 202.581,886.864 195.936,886.864C189.291,886.864 184.101,888.899 180.368,892.968C176.635,897.037 174.768,902.731 174.768,910.048L174.768,928.416C174.768,935.733 176.635,941.427 180.368,945.496C184.101,949.565 189.291,951.6 195.936,951.6C202.581,951.6 207.491,949.715 210.664,945.944C213.837,942.173 215.424,937.339 215.424,931.44L215.424,929.648L224.72,929.648L224.72,931.104C224.72,940.064 222.237,947.12 217.272,952.272C212.307,957.424 205.195,960 195.936,960Z" style="fill:white;fill-rule:nonzero;"/><path d="M273.552,960C264.219,960 256.771,957.293 251.208,951.88C245.645,946.467 242.864,938.571 242.864,928.192L242.864,910.272C242.864,899.893 245.645,891.997 251.208,886.584C256.771,881.171 264.219,878.464 273.552,878.464C282.96,878.464 290.445,881.171 296.008,886.584C301.571,891.997 304.352,899.893 304.352,910.272L304.352,928.192C304.352,938.571 301.571,946.467 296.008,951.88C290.445,957.293 282.96,960 273.552,960ZM273.552,951.6C280.347,951.6 285.611,949.565 289.344,945.496C293.077,941.427 294.944,935.771 294.944,928.528L294.944,909.936C294.944,902.693 293.077,897.037 289.344,892.968C285.611,888.899 280.347,886.864 273.552,886.864C266.832,886.864 261.605,888.899 257.872,892.968C254.139,897.037 252.272,902.693 252.272,909.936L252.272,928.528C252.272,935.771 254.139,941.427 257.872,945.496C261.605,949.565 266.832,951.6 273.552,951.6Z" style="fill:white;fill-rule:nonzero;"/><path d="M325.632,958.432L325.632,880.032L357.328,880.032C362.181,880.032 366.456,880.872 370.152,882.552C373.848,884.232 376.741,886.621 378.832,889.72C380.923,892.819 381.968,896.533 381.968,900.864L381.968,902.096C381.968,907.248 380.736,911.317 378.272,914.304C375.808,917.291 372.896,919.307 369.536,920.352L369.536,921.92C372.224,921.995 374.445,922.872 376.2,924.552C377.955,926.232 378.832,928.752 378.832,932.112L378.832,958.432L369.536,958.432L369.536,933.232C369.536,930.992 368.92,929.275 367.688,928.08C366.456,926.885 364.608,926.288 362.144,926.288L335.04,926.288L335.04,958.432L325.632,958.432ZM335.04,917.776L356.432,917.776C361.584,917.776 365.56,916.525 368.36,914.024C371.16,911.523 372.56,908.032 372.56,903.552L372.56,902.768C372.56,898.288 371.179,894.797 368.416,892.296C365.653,889.795 361.659,888.544 356.432,888.544L335.04,888.544L335.04,917.776Z" style="fill:white;fill-rule:nonzero;"/><path d="M401.904,958.432L401.904,880.032L450.176,880.032L450.176,888.544L411.312,888.544L411.312,914.752L447.04,914.752L447.04,923.264L411.312,923.264L411.312,949.92L450.736,949.92L450.736,958.432L401.904,958.432Z" style="fill:white;fill-rule:nonzero;"/><path d="M496.656,960C490.981,960 485.904,958.992 481.424,956.976C476.944,954.96 473.416,951.917 470.84,947.848C468.264,943.779 466.976,938.683 466.976,932.56L466.976,930.208L476.272,930.208L476.272,932.56C476.272,939.056 478.176,943.891 481.984,947.064C485.792,950.237 490.683,951.824 496.656,951.824C502.779,951.824 507.445,950.443 510.656,947.68C513.867,944.917 515.472,941.445 515.472,937.264C515.472,934.352 514.744,932.037 513.288,930.32C511.832,928.603 509.797,927.203 507.184,926.12C504.571,925.037 501.509,924.085 498,923.264L492.176,921.808C487.621,920.613 483.589,919.157 480.08,917.44C476.571,915.723 473.827,913.464 471.848,910.664C469.869,907.864 468.88,904.261 468.88,899.856C468.88,895.451 469.981,891.643 472.184,888.432C474.387,885.221 477.485,882.757 481.48,881.04C485.475,879.323 490.085,878.464 495.312,878.464C500.613,878.464 505.373,879.379 509.592,881.208C513.811,883.037 517.133,885.725 519.56,889.272C521.987,892.819 523.2,897.28 523.2,902.656L523.2,907.36L513.904,907.36L513.904,902.656C513.904,898.848 513.101,895.787 511.496,893.472C509.891,891.157 507.688,889.44 504.888,888.32C502.088,887.2 498.896,886.64 495.312,886.64C490.16,886.64 486.016,887.779 482.88,890.056C479.744,892.333 478.176,895.563 478.176,899.744C478.176,902.507 478.848,904.747 480.192,906.464C481.536,908.181 483.44,909.581 485.904,910.664C488.368,911.747 491.317,912.699 494.752,913.52L500.576,914.976C505.131,915.947 509.219,917.272 512.84,918.952C516.461,920.632 519.355,922.909 521.52,925.784C523.685,928.659 524.768,932.411 524.768,937.04C524.768,941.669 523.611,945.701 521.296,949.136C518.981,952.571 515.715,955.24 511.496,957.144C507.277,959.048 502.331,960 496.656,960Z" style="fill:white;fill-rule:nonzero;"/><path d="M573.264,960C563.931,960 556.483,957.293 550.92,951.88C545.357,946.467 542.576,938.571 542.576,928.192L542.576,910.272C542.576,899.893 545.357,891.997 550.92,886.584C556.483,881.171 563.931,878.464 573.264,878.464C582.672,878.464 590.157,881.171 595.72,886.584C601.283,891.997 604.064,899.893 604.064,910.272L604.064,928.192C604.064,938.571 601.283,946.467 595.72,951.88C590.157,957.293 582.672,960 573.264,960ZM573.264,951.6C580.059,951.6 585.323,949.565 589.056,945.496C592.789,941.427 594.656,935.771 594.656,928.528L594.656,909.936C594.656,902.693 592.789,897.037 589.056,892.968C585.323,888.899 580.059,886.864 573.264,886.864C566.544,886.864 561.317,888.899 557.584,892.968C553.851,897.037 551.984,902.693 551.984,909.936L551.984,928.528C551.984,935.771 553.851,941.427 557.584,945.496C561.317,949.565 566.544,951.6 573.264,951.6Z" style="fill:white;fill-rule:nonzero;"/><path d="M653.68,960C644.347,960 636.917,957.293 631.392,951.88C625.867,946.467 623.104,938.571 623.104,928.192L623.104,910.272C623.104,899.893 625.867,891.997 631.392,886.584C636.917,881.171 644.347,878.464 653.68,878.464C662.939,878.464 670.051,881.04 675.016,886.192C679.981,891.344 682.464,898.4 682.464,907.36L682.464,907.92L673.168,907.92L673.168,907.024C673.168,901.125 671.581,896.291 668.408,892.52C665.235,888.749 660.325,886.864 653.68,886.864C647.035,886.864 641.845,888.899 638.112,892.968C634.379,897.037 632.512,902.731 632.512,910.048L632.512,928.416C632.512,935.733 634.379,941.427 638.112,945.496C641.845,949.565 647.035,951.6 653.68,951.6C660.325,951.6 665.235,949.715 668.408,945.944C671.581,942.173 673.168,937.339 673.168,931.44L673.168,929.648L682.464,929.648L682.464,931.104C682.464,940.064 679.981,947.12 675.016,952.272C670.051,957.424 662.939,960 653.68,960Z" style="fill:white;fill-rule:nonzero;"/><rect x="702.848" y="880.032" width="9.408" height="78.4" style="fill:white;fill-rule:nonzero;"/><path d="M729.616,958.432L753.808,880.032L770.384,880.032L794.576,958.432L784.832,958.432L778.784,938.608L745.408,938.608L739.36,958.432L729.616,958.432ZM747.76,930.096L776.32,930.096L762.88,885.744L761.312,885.744L747.76,930.096Z" style="fill:white;fill-rule:nonzero;"/><path d="M811.936,958.432L811.936,880.032L821.344,880.032L821.344,949.92L860.992,949.92L860.992,958.432L811.936,958.432Z" style="fill:white;fill-rule:nonzero;"/></g></g></svg>